<?xml version="1.0" standalone="no"?>
<!DOCTYPE svg PUBLIC "-//W3C//DTD SVG 20010904//EN"
 "http://www.w3.org/TR/2001/REC-SVG-20010904/DTD/svg10.dtd">
<svg version="1.0" xmlns="http://www.w3.org/2000/svg"
 width="900.000000pt" height="1140.000000pt" viewBox="0 0 900.000000 1140.000000"
 preserveAspectRatio="xMidYMid meet">
<metadata>
Created by potrace 1.16, written by Peter Selinger 2001-2019
</metadata>
<g transform="translate(0.000000,1140.000000) scale(0.100000,-0.100000)"
fill="#000000" stroke="none">
<path d="M5870 11251 c0 -4 23 -31 52 -59 59 -58 56 -60 -52 -37 -36 7 -66 12
-68 10 -2 -2 20 -22 48 -44 l52 -41 -34 0 c-40 0 -184 34 -234 55 -19 8 -34
11 -32 6 7 -19 118 -106 188 -147 68 -40 72 -44 44 -44 -18 0 -50 7 -73 15
-22 8 -41 10 -41 6 0 -9 53 -52 110 -89 l35 -23 -55 6 c-30 4 -100 22 -155 40
l-100 33 50 -44 c49 -43 151 -102 222 -129 l38 -14 -40 0 c-22 -1 -65 5 -95
13 -30 8 -56 13 -58 11 -6 -6 79 -67 125 -88 l48 -22 -50 -3 c-45 -3 -148 10
-192 24 -35 11 32 -39 85 -63 l52 -25 -50 -55 c-27 -30 -85 -111 -128 -181
-42 -69 -103 -154 -136 -189 -62 -67 -64 -73 -15 -47 17 8 33 13 36 10 3 -3
-49 -61 -116 -129 -67 -69 -121 -128 -121 -132 0 -3 15 5 33 18 36 28 80 51
117 62 20 6 14 -3 -31 -52 -71 -78 -130 -191 -214 -418 -114 -305 -184 -437
-296 -559 -30 -33 -47 -56 -39 -51 8 5 32 19 54 33 51 32 52 32 -174 -233
-102 -120 -209 -247 -238 -284 -81 -100 -202 -284 -260 -396 -30 -58 -93 -151
-148 -220 -131 -166 -313 -415 -374 -514 -64 -103 -140 -253 -178 -351 -16
-41 -48 -104 -71 -140 -98 -149 -241 -486 -241 -567 0 -20 -18 -58 -50 -106
-205 -315 -522 -890 -544 -991 -6 -25 -5 -28 14 -23 19 5 19 2 -9 -46 -39 -71
-81 -180 -81 -212 0 -16 -21 -58 -50 -102 -27 -41 -51 -82 -52 -91 0 -10 -2
-21 -2 -27 -1 -5 -21 -42 -44 -81 -49 -82 -64 -141 -39 -158 13 -10 8 -23 -41
-94 -42 -62 -56 -92 -58 -122 -1 -30 -10 -50 -37 -79 -48 -53 -60 -78 -53
-112 4 -22 -1 -36 -22 -61 -68 -79 -90 -128 -57 -128 20 0 20 -2 -15 -57 -35
-54 -40 -103 -12 -103 22 0 96 46 179 111 35 27 65 49 68 49 2 0 -8 -26 -23
-57 -64 -136 -530 -747 -1092 -1433 -97 -118 -268 -327 -381 -465 -309 -378
-364 -447 -486 -608 -164 -219 -184 -267 -111 -267 70 0 201 81 364 226 l84
75 -64 -99 c-127 -193 -174 -312 -129 -329 43 -17 203 109 466 366 l172 169
-76 -152 c-181 -362 -126 -450 128 -202 57 54 103 97 103 94 0 -3 -14 -37 -32
-74 -41 -87 -45 -157 -10 -162 38 -6 103 42 212 155 279 289 795 1043 1357
1983 l99 164 104 13 c256 31 483 95 675 188 104 51 251 142 339 210 34 26 38
27 28 8 -18 -33 -15 -36 15 -14 34 27 39 21 17 -21 -12 -24 -13 -30 -3 -22 58
46 117 87 143 100 25 13 19 3 -34 -52 -118 -123 -122 -134 -30 -68 44 31 270
154 284 154 4 0 -23 -28 -60 -62 -67 -63 -154 -170 -154 -191 0 -6 12 1 28 15
43 41 148 105 260 159 57 27 106 49 108 49 3 0 -20 -23 -51 -52 -51 -46 -145
-158 -145 -172 0 -3 32 15 71 40 60 39 245 134 261 134 3 0 8 -45 11 -99 4
-55 11 -109 15 -121 7 -20 10 -17 21 21 15 49 56 135 69 143 5 3 8 -43 8 -102
0 -77 6 -124 19 -167 l19 -60 8 70 c13 101 16 106 39 62 32 -61 287 -641 350
-796 33 -79 68 -176 80 -215 11 -39 53 -170 92 -291 70 -219 71 -221 71 -335
1 -115 1 -115 45 -205 55 -114 64 -197 32 -289 -40 -113 -18 -208 60 -262 l41
-28 -5 -166 c-3 -91 -8 -178 -11 -195 -4 -19 5 -8 24 32 36 76 69 197 76 283
3 40 15 85 31 118 21 44 25 61 20 104 -6 49 -13 61 -82 157 -22 29 -25 45 -25
113 0 52 7 99 20 138 28 83 19 112 -62 210 -62 76 -87 162 -53 190 21 17 49 5
89 -40 53 -59 72 -106 79 -191 10 -118 31 -156 124 -220 45 -32 62 -58 96
-148 18 -47 21 -80 21 -211 1 -176 8 -201 81 -276 37 -38 44 -51 56 -121 8
-47 14 -146 14 -251 0 -169 0 -172 17 -134 44 106 85 369 71 467 -4 30 0 57
11 85 32 80 13 155 -64 255 -77 100 -128 250 -140 411 -11 155 -21 170 -163
263 -81 54 -110 89 -128 155 -13 48 0 83 35 92 34 8 61 -10 92 -62 32 -54 67
-74 133 -74 44 0 55 -4 86 -35 32 -33 35 -41 35 -93 0 -31 5 -74 10 -94 12
-40 66 -94 106 -104 18 -5 31 -20 45 -51 29 -68 60 -200 66 -281 4 -53 9 -70
17 -62 19 19 21 296 2 388 -9 43 -16 106 -16 138 0 68 -18 102 -73 140 -20 13
-39 24 -43 24 -4 0 -22 11 -40 25 -20 16 -48 58 -78 118 -55 112 -67 120 -231
142 -121 17 -171 39 -278 123 -82 64 -64 31 -383 709 -129 275 -194 423 -194
445 0 28 44 207 52 213 2 1 34 10 72 19 37 9 106 32 152 51 46 18 82 30 79 26
-2 -5 -29 -25 -60 -46 -30 -21 -53 -40 -52 -42 2 -2 61 15 131 37 151 49 329
127 446 197 l85 51 75 -72 c41 -40 206 -196 365 -346 160 -149 305 -288 324
-309 49 -54 201 -286 243 -371 23 -48 38 -97 42 -135 9 -81 37 -132 98 -179
37 -29 58 -56 80 -101 27 -59 28 -65 18 -134 -7 -50 -7 -85 0 -111 11 -41 56
-86 96 -96 16 -4 30 -19 40 -43 35 -81 73 -213 85 -292 12 -83 13 -84 22 -44
12 53 2 297 -15 360 -11 40 -11 57 -1 85 16 46 16 109 0 140 -7 13 -32 39 -57
58 -25 18 -58 57 -74 85 -25 43 -31 65 -36 144 -7 106 -16 120 -107 179 -59
37 -86 80 -81 127 2 26 8 33 30 35 30 4 100 -29 133 -62 14 -14 28 -47 35 -82
7 -32 19 -71 26 -86 16 -30 77 -65 164 -93 70 -23 150 -75 173 -113 10 -18 21
-67 26 -115 5 -53 16 -98 28 -119 22 -38 75 -77 116 -85 20 -4 36 -21 61 -62
76 -126 132 -257 166 -386 l19 -70 0 91 c1 144 -39 339 -94 459 -13 28 -28 75
-34 106 -16 76 -46 116 -122 158 -53 30 -77 53 -136 131 -46 60 -80 118 -95
158 -28 81 -56 104 -165 139 -63 20 -98 38 -125 64 -55 52 -48 99 15 99 29 0
51 -18 117 -98 21 -24 37 -31 81 -37 30 -4 79 -19 109 -33 47 -23 60 -36 89
-89 39 -71 71 -91 157 -100 50 -5 57 -10 97 -57 69 -81 117 -152 159 -235 34
-68 38 -72 32 -36 -18 106 -91 288 -154 380 -15 22 -30 56 -34 76 -12 68 -74
119 -143 119 -57 0 -155 57 -224 131 -75 80 -105 92 -205 83 -79 -8 -210 17
-289 56 -75 37 -386 301 -850 722 l-50 45 33 19 c162 94 220 131 330 213 79
59 183 152 276 244 l148 149 -51 -76 c-28 -42 -86 -118 -129 -168 -73 -89 -74
-91 -32 -60 145 106 373 314 503 460 278 310 573 758 741 1128 114 251 194
508 232 756 28 177 26 531 -5 703 -44 246 -126 487 -258 755 -82 165 -105 240
-124 388 -17 139 -7 365 23 475 l23 88 101 4 c179 8 450 89 660 199 l101 53
66 -23 c79 -26 79 -24 -15 86 -148 172 -516 437 -710 509 -34 13 -37 48 -9
119 28 71 35 132 21 198 -21 102 -96 246 -180 344 l-30 35 7 -50 6 -50 -88 93
c-125 132 -320 284 -454 352 -35 18 -43 19 -37 6 3 -9 9 -23 12 -32 4 -8 -31
9 -77 39 -246 160 -451 217 -904 252 -240 19 -358 38 -437 69 -32 13 -58 20
-58 17z"/>
</g>
</svg>
