<?xml version="1.0" standalone="no"?>
<!DOCTYPE svg PUBLIC "-//W3C//DTD SVG 20010904//EN"
 "http://www.w3.org/TR/2001/REC-SVG-20010904/DTD/svg10.dtd">
<svg version="1.0" xmlns="http://www.w3.org/2000/svg"
 width="728.000000pt" height="537.000000pt" viewBox="0 0 728.000000 537.000000"
 preserveAspectRatio="xMidYMid meet">
<metadata>
Created by potrace 1.16, written by Peter Selinger 2001-2019
</metadata>
<g transform="translate(0.000000,537.000000) scale(0.100000,-0.100000)"
fill="#000000" stroke="none">
<path d="M6400 5361 c-48 -27 -70 -31 -131 -27 -37 3 -79 10 -93 16 -32 12
-79 13 -90 3 -4 -5 -26 -8 -49 -8 -45 -1 -92 -27 -100 -57 -4 -13 -16 -18 -45
-18 -23 0 -44 -5 -47 -10 -3 -6 -16 -8 -28 -6 -90 19 -94 18 -107 -14 -10 -23
-18 -30 -35 -28 -13 2 -33 -9 -53 -30 -17 -17 -36 -32 -42 -32 -5 0 -10 -7
-10 -16 0 -11 -5 -14 -17 -10 -16 7 -53 -23 -53 -43 0 -5 -8 -12 -17 -15 -10
-4 -28 -22 -41 -41 -15 -25 -30 -35 -47 -35 -18 0 -25 -5 -25 -20 0 -10 -9
-24 -20 -30 -11 -6 -20 -17 -20 -25 0 -25 -22 -64 -40 -70 -9 -3 -28 -25 -44
-49 -15 -24 -38 -48 -52 -54 -13 -7 -24 -18 -24 -26 0 -16 -51 -70 -75 -79 -8
-4 -15 -11 -15 -16 0 -5 -15 -12 -34 -15 -19 -4 -36 -11 -38 -16 -4 -12 -146
-29 -303 -35 -128 -5 -321 -15 -380 -21 -16 -1 -75 -5 -130 -8 -165 -9 -336
-26 -400 -40 -78 -17 -392 -12 -575 9 -19 2 -84 7 -144 10 -60 4 -120 11 -133
16 -13 5 -39 9 -56 9 -18 0 -63 7 -101 15 -49 10 -73 12 -82 4 -9 -7 -19 -7
-33 0 -11 6 -37 11 -59 11 -21 0 -42 3 -45 7 -4 3 -44 7 -89 8 -106 2 -240 15
-253 25 -5 4 -43 8 -83 9 -40 0 -91 5 -113 11 -23 6 -103 12 -179 13 -76 1
-142 6 -146 10 -11 11 -64 8 -64 -3 0 -5 -9 -10 -20 -10 -31 0 -114 -24 -122
-35 -4 -5 -26 -10 -50 -10 -27 0 -49 -6 -60 -17 -10 -10 -36 -21 -58 -24 -24
-4 -40 -12 -40 -20 0 -9 -12 -14 -36 -14 -27 0 -35 -4 -31 -14 6 -16 -20 -26
-70 -26 -26 0 -33 -4 -33 -20 0 -20 -13 -25 -57 -21 -14 1 -28 -8 -39 -24 -9
-14 -24 -25 -34 -25 -10 0 -20 -10 -24 -23 -3 -12 -19 -38 -36 -57 -16 -18
-30 -37 -30 -40 0 -4 -16 -15 -35 -26 -20 -11 -35 -26 -35 -37 0 -10 -7 -20
-15 -23 -8 -4 -15 -11 -15 -18 0 -11 -108 -82 -170 -110 -19 -9 -53 -26 -75
-39 -22 -12 -44 -23 -48 -24 -35 -6 -114 -43 -139 -65 -18 -16 -37 -28 -43
-28 -15 0 -107 -87 -134 -127 -11 -17 -21 -40 -21 -51 0 -10 -8 -30 -17 -43
-61 -83 -103 -227 -106 -364 -1 -38 -5 -75 -9 -81 -4 -6 -3 -25 1 -42 8 -25 5
-36 -15 -63 -14 -20 -20 -37 -15 -43 5 -6 6 -32 2 -58 -4 -26 -5 -52 -1 -58 4
-6 5 -49 4 -96 -2 -54 0 -84 7 -84 7 0 8 -12 3 -32 -6 -31 -5 -32 12 -18 16
14 17 13 11 -3 -10 -27 29 -75 58 -72 19 3 24 -3 29 -37 5 -32 9 -38 20 -29
16 13 42 5 50 -15 7 -17 29 -18 58 -1 31 17 48 34 48 47 0 6 4 9 9 5 13 -7 31
27 31 59 0 14 5 26 11 26 8 0 8 4 0 14 -16 19 5 32 25 15 19 -15 31 -4 15 15
-9 10 -9 16 -1 21 6 4 10 14 9 23 -1 10 1 34 5 54 6 26 4 43 -7 58 -8 12 -13
30 -10 40 4 15 10 17 34 10 34 -10 35 -8 9 28 -22 32 -29 122 -11 165 6 16 11
32 11 36 0 4 11 21 25 37 14 16 23 34 21 39 -4 12 22 65 32 65 4 0 7 -53 6
-118 0 -64 1 -121 4 -125 2 -4 6 -49 8 -100 2 -51 8 -110 13 -132 22 -94 32
-155 26 -165 -7 -11 15 -112 26 -120 4 -3 8 -14 11 -25 2 -13 11 -20 25 -19
18 0 21 -4 17 -30 -3 -17 1 -67 8 -111 12 -73 15 -81 43 -94 19 -10 25 -16 15
-18 -19 -4 -42 -75 -33 -100 3 -10 15 -26 25 -36 10 -10 15 -23 12 -29 -4 -6
-8 -35 -10 -65 -1 -39 -8 -59 -22 -71 -10 -9 -22 -27 -26 -39 -4 -11 -13 -27
-21 -33 -8 -7 -15 -23 -15 -35 0 -12 -7 -28 -16 -36 -8 -7 -13 -21 -11 -31 3
-10 1 -21 -4 -24 -5 -3 -9 -33 -9 -66 0 -66 -16 -134 -37 -159 -7 -8 -13 -22
-13 -30 0 -8 -7 -32 -15 -54 -8 -22 -14 -59 -15 -81 0 -42 -21 -122 -46 -181
-8 -17 -14 -38 -14 -47 0 -9 -24 -92 -54 -184 -30 -92 -67 -210 -82 -262 -15
-52 -47 -133 -71 -180 -35 -70 -43 -95 -43 -140 0 -30 4 -61 9 -69 6 -9 5 -21
-2 -32 -9 -15 -4 -24 37 -60 50 -44 54 -62 30 -123 -6 -15 -4 -17 14 -11 26 8
26 5 8 -39 l-14 -33 204 -7 c268 -9 564 1 564 21 0 7 -9 50 -21 94 -17 67 -19
88 -10 130 6 27 11 106 11 174 0 119 21 348 40 430 5 22 10 57 10 78 0 21 5
48 12 60 17 33 30 96 28 145 -1 40 1 43 22 40 22 -3 23 1 26 65 3 59 5 67 22
67 16 0 20 7 20 35 0 28 7 40 40 66 22 18 42 40 45 51 5 13 13 16 30 12 18 -4
25 -1 30 15 3 12 15 21 25 21 10 0 43 24 73 52 30 29 67 65 83 79 59 54 201
205 229 244 66 90 140 175 152 175 7 0 13 5 13 10 0 6 10 25 22 43 13 18 23
33 24 35 1 1 10 5 20 7 11 2 29 7 42 11 13 4 22 2 22 -4 0 -6 15 -18 34 -27
26 -13 39 -14 54 -6 15 8 21 7 25 -4 7 -16 82 -39 97 -30 5 3 20 0 32 -7 13
-7 32 -13 43 -14 11 0 34 -1 52 -2 17 -1 38 -9 47 -17 12 -13 29 -14 82 -9 51
5 68 4 75 -7 6 -10 28 -14 71 -13 35 0 66 -5 70 -10 5 -7 53 -10 134 -8 84 2
130 -1 140 -9 21 -17 133 -21 165 -5 21 10 32 11 55 1 31 -12 122 -8 141 7 6
5 58 11 114 14 71 3 108 9 119 19 11 10 39 15 88 15 62 0 71 2 77 20 6 20 14
20 76 4 9 -3 36 0 59 5 43 10 65 4 99 -28 11 -9 30 -12 67 -7 49 6 52 5 58
-18 3 -14 3 -31 0 -39 -3 -10 3 -17 19 -21 22 -5 27 -14 38 -78 6 -40 17 -78
24 -83 7 -6 16 -29 19 -52 4 -23 14 -44 22 -47 10 -4 13 -13 10 -24 -4 -10 2
-26 12 -38 10 -10 25 -40 35 -65 10 -25 27 -56 38 -68 17 -18 20 -30 15 -62
-5 -31 -2 -43 14 -59 11 -11 20 -29 20 -39 0 -10 7 -21 15 -25 9 -3 15 -18 15
-39 0 -18 7 -42 15 -53 8 -10 15 -27 15 -37 0 -11 6 -33 14 -50 8 -18 20 -71
26 -119 7 -49 16 -88 21 -88 13 0 4 -424 -10 -510 -11 -68 2 -215 20 -226 5
-3 9 -14 9 -24 0 -40 22 -70 52 -70 25 0 29 -5 40 -45 10 -37 17 -45 42 -51
39 -9 678 -8 706 1 21 7 28 39 10 50 -5 3 -14 24 -20 46 -6 23 -31 65 -54 94
-42 51 -61 91 -86 185 -7 25 -19 65 -27 90 -23 72 -38 431 -23 554 6 56 16
140 20 187 4 47 14 99 23 115 22 44 29 99 28 219 -1 113 10 187 28 193 6 2 11
17 11 34 0 21 6 31 20 35 24 6 27 41 5 69 -23 30 -18 37 25 30 l40 -6 0 34 c0
19 -4 38 -10 41 -17 10 -11 27 8 21 12 -4 24 5 41 29 13 19 29 35 35 35 6 0 4
4 -4 10 -8 5 -12 10 -10 12 3 2 19 13 37 26 18 12 39 22 46 22 8 0 20 7 27 15
7 8 16 12 21 9 5 -3 12 2 15 10 3 9 13 16 21 16 8 0 17 9 20 19 3 11 17 21 33
25 17 3 31 14 35 26 3 11 11 20 16 20 5 0 9 13 9 28 0 29 26 62 48 62 7 0 12
7 12 15 0 8 5 15 10 15 6 0 10 14 10 30 0 17 5 30 10 30 6 0 10 11 10 25 0 14
4 24 9 23 5 -2 10 0 10 4 1 5 10 24 21 44 12 20 18 44 15 55 -4 11 -2 19 5 19
6 0 9 14 7 35 -3 20 -1 38 4 41 4 2 6 11 2 19 -3 8 0 15 7 15 7 0 9 8 5 20 -3
10 1 40 10 66 9 26 13 54 10 62 -3 7 3 26 14 40 10 15 16 33 14 40 -3 6 2 12
10 12 9 0 19 15 24 38 8 32 13 37 35 35 26 -2 26 -1 22 57 -3 45 -1 59 11 64
8 3 15 17 15 31 0 16 6 25 15 25 9 0 20 11 25 24 5 13 14 27 19 31 6 3 11 17
11 30 0 13 5 27 11 31 6 3 9 15 6 25 -3 10 -1 22 4 25 5 3 9 14 9 25 0 10 5
19 10 19 6 0 10 13 10 29 0 17 5 33 10 36 6 3 10 26 10 51 0 37 3 44 20 44 11
0 20 6 20 14 0 23 31 41 74 42 50 1 76 12 76 30 0 8 10 14 23 14 41 0 70 51
83 145 4 27 12 55 18 61 6 7 20 24 30 38 10 14 26 26 34 26 8 0 40 7 71 16 31
9 74 21 96 27 22 6 45 13 50 17 14 8 111 6 158 -4 49 -11 98 -1 132 27 64 52
95 86 95 104 0 10 13 27 30 36 42 25 47 39 53 148 5 94 4 98 -25 150 -19 32
-93 116 -182 206 -151 152 -254 261 -280 298 -12 17 -12 24 0 47 20 39 17 72
-11 128 -25 49 -90 100 -128 100 -9 0 -41 11 -71 24 -31 14 -70 24 -88 24 -22
-1 -36 5 -46 20 -16 24 -19 25 -42 13z"/>
</g>
</svg>
