<?xml version="1.0" standalone="no"?>
<!DOCTYPE svg PUBLIC "-//W3C//DTD SVG 20010904//EN"
 "http://www.w3.org/TR/2001/REC-SVG-20010904/DTD/svg10.dtd">
<svg version="1.0" xmlns="http://www.w3.org/2000/svg"
 width="236.000000pt" height="236.000000pt" viewBox="0 0 236.000000 236.000000"
 preserveAspectRatio="xMidYMid meet">
<metadata>
Created by potrace 1.16, written by Peter Selinger 2001-2019
</metadata>
<g transform="translate(0.000000,236.000000) scale(0.100000,-0.100000)"
fill="#000000" stroke="none">
<path d="M1752 2089 c-48 -14 -152 -88 -163 -115 -4 -13 -12 -24 -17 -24 -5 0
-31 -23 -58 -51 -88 -91 -210 -188 -269 -215 -87 -40 -188 -43 -345 -9 -188
40 -267 33 -399 -34 -53 -27 -82 -29 -146 -6 -91 31 -147 31 -209 1 -94 -46
-146 -132 -146 -242 0 -80 66 -222 148 -321 36 -43 69 -81 75 -84 6 -4 7 -29
3 -62 -7 -55 9 -173 24 -182 4 -3 21 20 36 50 16 30 34 55 41 55 14 0 33 61
33 106 0 17 -7 53 -15 79 -11 38 -12 59 -4 90 14 57 0 105 -56 190 -46 71 -61
118 -51 158 15 63 87 107 140 88 31 -12 34 -37 10 -83 -23 -44 -13 -137 27
-263 54 -173 41 -299 -42 -376 -30 -28 -32 -33 -35 -127 -3 -53 -12 -131 -21
-172 -27 -130 -28 -139 -3 -165 17 -18 20 -30 15 -55 -10 -45 7 -60 71 -60 37
0 54 4 54 13 0 15 -28 58 -49 73 -31 24 -33 199 -2 300 23 78 43 112 124 207
29 35 64 82 77 106 14 23 49 62 79 87 52 43 55 44 73 27 49 -44 66 -145 44
-264 -8 -43 -6 -51 32 -115 22 -38 57 -112 78 -164 43 -108 58 -130 89 -130
27 0 55 -29 55 -57 0 -11 6 -26 14 -32 15 -12 111 -19 122 -9 14 15 -30 68
-80 96 -29 17 -63 44 -75 60 -37 53 -80 154 -97 230 -14 63 -15 84 -4 150 7
42 18 113 25 157 15 90 24 125 34 125 4 0 34 -10 66 -22 62 -22 196 -30 343
-18 54 4 66 2 77 -14 29 -39 35 -120 31 -388 l-5 -267 35 -20 c29 -17 34 -26
34 -56 0 -30 5 -37 28 -46 25 -10 88 -6 100 6 10 9 -22 56 -48 70 -48 27 -52
33 -64 92 -12 57 -7 159 10 203 3 8 9 51 14 95 8 77 53 233 84 293 19 37 70
48 124 25 29 -12 58 -14 129 -10 99 7 103 5 103 -52 0 -34 -37 -91 -70 -108
-13 -6 -28 -21 -32 -33 -6 -17 -11 -19 -27 -10 -11 5 -34 10 -51 10 -25 0 -33
-6 -47 -34 -22 -48 -12 -70 29 -60 18 3 49 15 68 25 19 11 46 19 61 19 29 0
47 17 78 75 11 22 35 59 52 82 27 36 31 49 30 98 0 31 -3 60 -6 65 -3 4 -20
11 -39 14 -18 4 -61 18 -95 31 -33 14 -69 25 -80 25 -24 0 -31 19 -31 83 0 29
-7 71 -15 93 -13 38 -12 48 5 110 14 46 20 100 20 162 0 113 16 151 63 152 14
0 16 -6 11 -38 -4 -24 1 -68 12 -112 16 -68 16 -75 1 -101 -14 -26 -14 -31 4
-68 22 -46 45 -57 88 -39 27 11 37 27 76 122 24 60 53 119 65 131 11 12 20 32
20 44 0 28 34 62 79 81 20 8 30 18 27 26 -3 8 -1 14 4 14 6 0 10 5 10 10 0 6
-16 10 -35 10 -31 0 -45 10 -108 74 -40 40 -85 80 -102 89 -84 41 -277 60
-363 36z"/>
</g>
</svg>
