<?xml version="1.0" standalone="no"?>
<!DOCTYPE svg PUBLIC "-//W3C//DTD SVG 20010904//EN"
 "http://www.w3.org/TR/2001/REC-SVG-20010904/DTD/svg10.dtd">
<svg version="1.0" xmlns="http://www.w3.org/2000/svg"
 width="900.000000pt" height="500.000000pt" viewBox="0 0 900.000000 500.000000"
 preserveAspectRatio="xMidYMid meet">
<metadata>
Created by potrace 1.16, written by Peter Selinger 2001-2019
</metadata>
<g transform="translate(0.000000,500.000000) scale(0.100000,-0.100000)"
fill="#000000" stroke="none">
<path d="M5575 4965 c-120 -32 -237 -51 -430 -70 -201 -19 -420 -56 -594 -100
-318 -79 -442 -93 -1211 -140 -773 -47 -921 -69 -1325 -199 -212 -68 -246 -73
-321 -51 -51 15 -68 27 -144 105 -174 180 -435 304 -448 213 -2 -12 11 -53 27
-92 19 -41 31 -86 31 -111 0 -42 0 -42 -31 -36 -17 3 -72 26 -122 51 -57 27
-117 48 -157 55 -65 10 -300 14 -300 5 0 -3 35 -55 77 -117 85 -126 182 -319
238 -477 20 -57 52 -140 71 -183 49 -114 52 -147 21 -200 -80 -136 -396 -368
-592 -433 -86 -29 -137 -31 -217 -9 -55 16 -60 16 -78 -1 -26 -24 -50 -98 -56
-180 -7 -90 19 -270 44 -305 11 -14 59 -47 109 -75 50 -27 123 -74 162 -104
91 -68 179 -118 421 -240 264 -134 465 -219 552 -236 95 -18 255 -32 503 -45
257 -14 346 -29 557 -97 95 -30 261 -77 369 -103 228 -57 244 -63 258 -88 5
-10 22 -90 36 -178 15 -87 40 -219 56 -291 32 -148 36 -227 14 -323 -33 -142
-67 -221 -167 -387 -55 -92 -102 -174 -105 -181 -4 -9 36 -12 180 -12 l186 0
0 64 c0 104 57 191 100 152 37 -33 86 -13 100 42 6 20 15 100 21 177 17 228
38 343 67 366 20 17 45 -10 91 -100 52 -100 86 -205 84 -262 -2 -109 -69 -307
-166 -494 -36 -70 -63 -131 -61 -136 17 -27 346 -15 404 16 37 19 41 31 41
122 l0 75 28 -7 c78 -20 98 -18 121 10 19 25 21 40 21 159 0 163 -14 364 -41
611 -35 309 -18 450 70 595 49 83 90 115 171 137 59 16 116 18 600 18 521 -1
537 -1 610 -23 299 -87 375 -96 547 -63 126 24 227 57 505 166 188 74 245 87
267 62 6 -8 18 -47 26 -88 21 -100 42 -138 130 -244 43 -51 94 -126 118 -174
40 -80 42 -89 45 -190 4 -123 -12 -211 -57 -299 -35 -70 -73 -119 -215 -277
-158 -176 -213 -265 -189 -304 23 -37 63 -46 222 -46 l155 0 36 90 c43 108 56
133 83 162 28 31 57 29 102 -7 43 -34 40 -33 66 -20 25 14 49 64 89 185 64
194 152 370 278 555 l64 95 -6 57 c-3 32 -2 58 2 58 13 0 221 -119 259 -147
59 -45 169 -227 243 -402 74 -174 62 -266 -86 -652 -35 -91 -66 -184 -70 -206
-5 -35 -3 -43 17 -57 13 -9 41 -16 62 -16 61 0 350 70 365 88 7 9 12 44 12 80
0 73 12 102 41 102 36 0 88 31 109 65 25 41 25 80 0 165 -46 153 -44 329 5
571 37 180 41 247 20 290 -10 19 -52 70 -95 114 -86 89 -174 230 -211 337 -21
61 -22 71 -11 115 7 26 39 95 70 153 158 292 225 524 252 870 25 326 41 400
91 446 23 21 80 24 103 5 14 -11 13 -20 -9 -78 -41 -107 -33 -139 35 -143 85
-5 88 -3 42 31 -23 17 -42 33 -42 35 0 2 13 25 29 52 68 110 56 213 -31 258
-15 8 -39 14 -53 14 -41 0 -73 42 -169 226 -115 219 -163 293 -250 382 -239
247 -782 540 -1191 642 -201 50 -476 68 -1150 75 l-440 5 -90 -25z"/>
</g>
</svg>
