<?xml version="1.0" standalone="no"?>
<!DOCTYPE svg PUBLIC "-//W3C//DTD SVG 20010904//EN"
 "http://www.w3.org/TR/2001/REC-SVG-20010904/DTD/svg10.dtd">
<svg version="1.0" xmlns="http://www.w3.org/2000/svg"
 width="215.000000pt" height="195.000000pt" viewBox="0 0 215.000000 195.000000"
 preserveAspectRatio="xMidYMid meet">
<metadata>
Created by potrace 1.16, written by Peter Selinger 2001-2019
</metadata>
<g transform="translate(0.000000,195.000000) scale(0.100000,-0.100000)"
fill="#000000" stroke="none">
<path d="M1571 1739 c-32 -6 -75 -23 -103 -40 -48 -31 -95 -85 -84 -96 3 -3
36 10 73 30 71 37 134 54 153 42 7 -4 -6 -24 -36 -53 -52 -52 -74 -94 -74
-146 0 -25 -6 -38 -24 -50 -14 -8 -27 -25 -31 -36 -5 -15 -15 -20 -42 -20 -20
0 -44 -6 -52 -14 -9 -8 -54 -24 -101 -36 -208 -56 -252 -59 -390 -35 -47 8
-137 18 -201 22 -110 6 -119 5 -172 -20 -31 -14 -72 -37 -90 -51 -19 -14 -38
-26 -43 -26 -5 0 -34 25 -64 56 -55 55 -55 56 -104 50 -55 -6 -86 -28 -86 -63
0 -26 15 -31 24 -8 3 9 18 15 36 15 25 0 32 -6 45 -37 9 -21 25 -47 36 -59 17
-18 20 -38 24 -135 2 -71 12 -150 26 -209 33 -139 36 -222 10 -266 -15 -24
-21 -52 -21 -92 0 -31 -5 -96 -10 -144 -10 -88 -8 -100 30 -178 5 -10 25 -16
60 -18 l53 -3 -16 25 c-10 14 -17 32 -17 39 0 8 -7 21 -16 28 -14 11 -16 27
-11 89 6 69 28 154 46 173 7 7 39 -95 65 -210 9 -40 25 -76 47 -102 30 -38 36
-41 81 -41 26 0 48 2 48 5 0 14 -45 88 -57 92 -46 18 -64 168 -40 331 9 56 19
107 23 113 5 8 32 9 93 4 171 -16 379 -3 474 30 27 9 70 15 100 13 l52 -3 7
-70 c3 -38 13 -91 22 -118 14 -39 16 -69 10 -167 -6 -111 -5 -122 17 -167 28
-60 33 -63 92 -63 48 0 48 0 33 22 -9 12 -16 30 -16 40 0 9 -10 24 -21 32 -18
12 -23 28 -27 84 -5 76 3 142 18 142 6 0 10 -12 10 -26 0 -40 32 -218 40 -224
4 -3 13 -18 21 -35 13 -27 19 -30 67 -33 28 -2 52 -2 52 0 0 7 -35 72 -52 98
-27 40 -51 147 -44 195 4 23 2 63 -4 88 -5 25 -11 88 -12 138 -1 88 0 93 25
114 35 31 66 95 74 152 7 54 39 131 76 187 14 20 33 69 42 109 8 40 28 97 43
128 l27 57 65 4 c36 3 79 2 95 -2 82 -17 128 26 107 98 -9 30 -28 54 -75 93
-34 28 -85 76 -114 106 l-51 53 -80 0 c-44 0 -86 2 -94 4 -7 2 -37 0 -67 -5z"/>
</g>
</svg>
