<?xml version="1.0" standalone="no"?>
<!DOCTYPE svg PUBLIC "-//W3C//DTD SVG 20010904//EN"
 "http://www.w3.org/TR/2001/REC-SVG-20010904/DTD/svg10.dtd">
<svg version="1.0" xmlns="http://www.w3.org/2000/svg"
 width="1723.000000pt" height="1723.000000pt" viewBox="0 0 1723.000000 1723.000000"
 preserveAspectRatio="xMidYMid meet">
<metadata>
Created by potrace 1.16, written by Peter Selinger 2001-2019
</metadata>
<g transform="translate(0.000000,1723.000000) scale(0.100000,-0.100000)"
fill="#000000" stroke="none">
<path d="M12540 14723 c-83 -94 -136 -246 -179 -513 -38 -229 -63 -290 -127
-306 -78 -20 -144 21 -429 267 -438 377 -550 450 -649 425 -107 -27 -163 -194
-153 -451 10 -216 49 -453 172 -1025 102 -473 144 -753 130 -870 -3 -30 -19
-136 -35 -235 -53 -324 -62 -438 -67 -895 -5 -481 -7 -496 -74 -553 -26 -23
-93 -55 -201 -97 -1840 -714 -3263 -1667 -4075 -2730 -635 -832 -962 -1792
-1057 -3105 -26 -351 -30 -614 -15 -965 19 -467 19 -475 -19 -553 -36 -73 -79
-112 -197 -182 -182 -108 -358 -180 -558 -229 -183 -46 -287 -56 -554 -56
-844 0 -1577 115 -2078 325 -404 169 -748 470 -982 860 -110 183 -186 358
-248 574 -169 589 -103 1309 177 1941 136 306 167 381 206 496 51 149 85 312
76 362 -17 100 -106 163 -241 170 -76 4 -87 2 -150 -27 -136 -64 -314 -280
-433 -526 -204 -423 -352 -939 -405 -1415 -20 -181 -20 -628 0 -810 73 -650
291 -1211 642 -1645 90 -112 301 -322 408 -406 316 -250 698 -442 1135 -570
320 -94 582 -139 1060 -181 101 -9 1319 -12 4860 -15 l4724 -3 51 25 c27 14
59 37 69 52 25 33 32 118 16 169 -27 85 -274 546 -558 1044 -139 245 -273 508
-356 705 -126 296 -241 679 -266 885 -26 213 -8 326 101 660 124 377 218 584
293 645 67 54 164 36 406 -76 411 -189 729 -283 1309 -385 668 -117 1150 -227
1266 -287 180 -94 282 -286 320 -603 20 -164 51 -277 107 -394 52 -108 139
-199 213 -223 265 -87 549 66 620 334 9 34 15 103 15 184 0 111 -4 149 -29
250 -68 275 -179 522 -351 780 -205 306 -386 486 -593 591 -37 19 -165 68
-285 108 -798 272 -1436 557 -1520 680 -64 93 -263 643 -302 836 -29 139 -23
194 44 428 136 471 197 736 237 1037 20 149 23 213 24 510 0 273 -4 367 -18
475 -10 74 -32 236 -48 360 -16 124 -48 358 -71 520 -45 328 -46 417 -7 532
28 83 57 132 125 207 122 134 591 731 617 785 30 62 40 108 56 256 6 52 20
122 32 155 33 90 31 193 -4 269 -38 82 -123 219 -168 269 -61 70 -113 91 -319
131 -102 19 -223 42 -270 50 -165 28 -237 69 -306 178 -75 116 -141 145 -292
127 -103 -13 -200 -3 -300 32 -30 10 -77 19 -104 19 -94 0 -142 40 -168 140
-6 25 -38 137 -71 250 -59 199 -94 280 -123 280 -8 0 -33 -21 -56 -47z m-1591
-9546 c13 -6 32 -23 43 -37 33 -46 111 -456 168 -887 36 -271 78 -457 159
-693 69 -205 143 -372 345 -781 96 -196 178 -368 181 -382 5 -18 1 -31 -14
-46 -19 -19 -29 -21 -74 -15 -29 4 -88 20 -132 37 -102 38 -210 41 -329 9 -94
-26 -151 -27 -231 -7 -94 25 -143 58 -443 295 -44 35 -84 56 -133 71 -65 20
-84 21 -220 14 l-149 -7 -30 30 c-16 17 -30 39 -30 50 0 11 36 91 80 178 130
258 216 510 295 869 62 279 58 371 -25 542 -43 88 -47 114 -26 153 38 71 331
538 350 559 47 53 158 78 215 48z"/>
</g>
</svg>
