<?xml version="1.0" standalone="no"?>
<!DOCTYPE svg PUBLIC "-//W3C//DTD SVG 20010904//EN"
 "http://www.w3.org/TR/2001/REC-SVG-20010904/DTD/svg10.dtd">
<svg version="1.0" xmlns="http://www.w3.org/2000/svg"
 width="600.000000pt" height="479.000000pt" viewBox="0 0 600.000000 479.000000"
 preserveAspectRatio="xMidYMid meet">
<metadata>
Created by potrace 1.16, written by Peter Selinger 2001-2019
</metadata>
<g transform="translate(0.000000,479.000000) scale(0.100000,-0.100000)"
fill="#000000" stroke="none">
<path d="M94 4423 c4 -32 8 -131 11 -221 3 -89 9 -171 15 -182 5 -10 10 -34
10 -53 0 -19 11 -59 25 -89 14 -29 25 -67 25 -85 0 -24 7 -37 30 -53 18 -13
32 -33 36 -54 3 -19 19 -47 35 -62 16 -15 29 -35 29 -45 0 -9 19 -29 43 -44
23 -15 51 -41 62 -58 11 -16 38 -43 60 -59 40 -28 656 -280 816 -333 45 -15
90 -36 100 -46 30 -30 24 -79 -17 -140 -52 -75 -92 -165 -109 -245 -17 -85
-22 -242 -8 -269 6 -11 14 -39 18 -63 4 -24 16 -51 27 -61 14 -14 16 -21 7
-26 -8 -6 -5 -13 11 -25 23 -17 23 -18 8 -66 -17 -54 -13 -117 8 -135 8 -6 11
-21 8 -38 -4 -18 3 -42 20 -74 48 -85 33 -143 -74 -286 -34 -47 -69 -99 -76
-117 -16 -38 -19 -170 -4 -179 18 -11 11 -29 -30 -84 -36 -48 -40 -59 -40
-113 0 -33 6 -86 14 -117 8 -31 19 -102 26 -158 6 -57 27 -164 46 -239 18 -76
34 -150 34 -166 0 -37 22 -88 47 -111 18 -16 39 -17 189 -15 l168 3 3 42 c2
37 -3 48 -47 101 -57 67 -77 79 -140 90 -54 9 -76 41 -86 127 -7 55 -6 58 12
49 24 -11 221 -6 246 7 28 15 23 69 -12 117 -36 50 -55 61 -117 68 -88 10 -91
12 -102 51 -23 84 42 223 165 354 45 47 87 96 94 110 7 13 52 76 100 139 47
63 94 128 104 144 21 33 93 225 137 363 37 117 53 128 113 84 104 -78 199
-115 260 -104 43 9 51 27 37 89 -7 31 -10 58 -7 61 3 3 49 -9 101 -26 53 -18
145 -43 205 -56 59 -14 172 -45 251 -70 79 -25 180 -53 224 -62 44 -8 147 -38
230 -65 134 -44 165 -50 291 -60 l142 -11 13 -46 c14 -51 20 -112 43 -486 13
-211 14 -283 5 -380 -13 -139 -7 -165 45 -196 36 -21 57 -56 76 -129 6 -25 23
-64 36 -87 13 -23 24 -57 24 -76 0 -19 9 -45 19 -58 18 -23 27 -24 153 -27
141 -4 200 5 239 37 21 17 22 21 10 50 -8 17 -38 54 -68 81 -46 42 -61 50 -93
50 -23 0 -45 7 -56 17 -17 18 -64 115 -64 133 0 6 21 8 53 5 28 -3 84 0 122 8
68 13 70 14 73 44 4 43 -19 84 -70 124 -34 28 -53 35 -102 39 -57 5 -60 6 -80
45 -28 53 -27 142 2 425 26 251 32 287 75 400 26 67 38 88 61 98 16 8 34 29
43 50 8 21 27 48 41 62 13 14 31 39 38 57 8 17 18 34 23 38 22 13 73 101 101
174 18 46 43 89 61 107 52 50 60 74 60 196 l0 111 57 68 c68 80 162 250 187
334 9 33 32 85 50 115 18 30 44 76 59 102 31 55 106 124 144 131 15 3 71 -3
125 -14 123 -24 117 -24 161 6 26 17 50 25 82 25 102 0 187 74 252 222 65 149
58 176 -51 209 -39 12 -111 29 -159 39 -195 40 -238 61 -238 116 0 99 -81 150
-307 194 -210 40 -331 20 -450 -75 -37 -30 -86 -78 -108 -107 -22 -29 -70 -84
-106 -123 -36 -38 -97 -108 -136 -155 -39 -47 -115 -131 -169 -186 -147 -151
-241 -196 -438 -210 -67 -5 -128 -18 -231 -51 -173 -55 -265 -66 -465 -58
-168 7 -482 36 -650 60 -179 25 -371 14 -609 -35 -118 -24 -140 -22 -276 20
-49 16 -161 47 -248 69 -344 89 -540 193 -679 360 -46 54 -101 149 -123 210
-8 24 -30 69 -49 100 -18 31 -45 88 -60 126 -14 39 -36 85 -49 102 -23 34
-160 163 -172 163 -4 0 -4 -26 -1 -57z"/>
</g>
</svg>
