<?xml version="1.0" standalone="no"?>
<!DOCTYPE svg PUBLIC "-//W3C//DTD SVG 20010904//EN"
 "http://www.w3.org/TR/2001/REC-SVG-20010904/DTD/svg10.dtd">
<svg version="1.0" xmlns="http://www.w3.org/2000/svg"
 width="512.000000pt" height="512.000000pt" viewBox="0 0 512.000000 512.000000"
 preserveAspectRatio="xMidYMid meet">
<metadata>
Created by potrace 1.16, written by Peter Selinger 2001-2019
</metadata>
<g transform="translate(0.000000,512.000000) scale(0.100000,-0.100000)"
fill="#000000" stroke="none">
<path d="M4536 4203 l-145 -103 -179 0 -180 0 -107 66 c-102 62 -111 65 -152
59 l-43 -6 0 -51 c0 -48 3 -53 71 -128 67 -74 70 -80 61 -111 -6 -26 -15 -35
-38 -41 -16 -4 -392 -46 -836 -94 l-807 -86 -868 25 -867 25 -93 -41 c-90 -38
-95 -42 -162 -126 l-70 -87 -35 -204 c-22 -132 -37 -256 -41 -350 -4 -80 -15
-200 -26 -267 -19 -120 -25 -329 -13 -405 5 -28 12 -37 31 -41 19 -3 33 4 62
35 34 37 39 51 65 172 l28 132 -21 160 c-11 87 -21 164 -20 169 1 6 25 -107
55 -250 l53 -260 -36 -239 -36 -238 37 -522 37 -521 36 -32 36 -33 140 0 c147
0 253 19 244 44 -3 7 -60 102 -128 212 -67 109 -122 208 -121 218 0 11 29 133
62 273 l62 253 27 0 c28 0 29 -2 145 -357 112 -340 121 -363 179 -452 86 -131
86 -131 288 -131 145 0 168 2 182 18 8 9 17 23 19 30 2 7 -55 48 -132 95
l-135 83 -96 289 -96 290 20 42 c21 42 22 43 73 43 l52 0 32 -78 c18 -42 36
-81 40 -86 8 -7 31 25 96 130 9 15 17 7 54 -59 24 -42 48 -77 52 -77 5 0 27
40 49 89 l41 89 121 93 120 92 396 38 c218 21 412 38 431 39 32 0 41 -8 104
-86 l69 -86 62 -437 c60 -421 63 -438 94 -493 l33 -58 153 0 c150 0 153 0 168
24 16 24 14 27 -75 151 l-91 126 -8 157 c-4 86 -8 190 -9 230 l0 73 42 -25
c39 -23 44 -32 69 -108 14 -46 65 -207 113 -358 111 -348 95 -329 284 -330
l133 0 14 32 c13 32 13 34 -29 78 -30 32 -79 115 -164 281 l-121 237 28 246
c16 136 34 252 39 259 6 7 69 55 139 107 l129 95 203 376 202 377 232 107 232
108 215 24 c251 29 242 24 285 150 25 73 27 87 17 121 -9 29 -75 104 -287 325
l-276 287 108 70 c59 38 112 71 117 73 8 3 30 127 24 132 -2 2 -29 5 -61 7
l-57 5 -144 -104z"/>
</g>
</svg>
